<svg xmlns="http://www.w3.org/2000/svg" viewBox="0 0 1000 1000" width="1000" height="1000" role="img" preserveAspectRatio="xMidYMid slice">
<defs>
  <linearGradient id="g-wall" x1="0" y1="0" x2="0" y2="1">
    <stop offset="0" stop-color="#FCFAF6"/>
    <stop offset="1" stop-color="#F0EBE0"/>
  </linearGradient>
  <linearGradient id="g-floor" x1="0" y1="0" x2="0" y2="1">
    <stop offset="0" stop-color="#EFE9DC"/>
    <stop offset="1" stop-color="#E4DCCB"/>
  </linearGradient>
  <linearGradient id="g-cyl" x1="0" y1="0" x2="1" y2="0">
    <stop offset="0" stop-color="#000000" stop-opacity="0.13"/>
    <stop offset="0.32" stop-color="#FFFFFF" stop-opacity="0.30"/>
    <stop offset="1" stop-color="#000000" stop-opacity="0.16"/>
  </linearGradient>
  <linearGradient id="g-cavity" x1="0" y1="0" x2="0" y2="1">
    <stop offset="0" stop-color="#7A5B38" stop-opacity="0.22"/>
    <stop offset="1" stop-color="#7A5B38" stop-opacity="0.03"/>
  </linearGradient>
  <radialGradient id="g-shadow">
    <stop offset="0" stop-color="#3A2E22" stop-opacity="0.20"/>
    <stop offset="1" stop-color="#3A2E22" stop-opacity="0"/>
  </radialGradient>
</defs>
<rect width="1000" height="1000" fill="url(#g-wall)"/><rect y="860" width="1000" height="140" fill="url(#g-floor)"/><line x1="0" y1="860" x2="1000" y2="860" stroke="#D8CFBD" stroke-width="1.5"/><g transform="translate(500,860) scale(1.1)"><ellipse cx="0" cy="6" rx="316.2" ry="26.4" fill="url(#g-shadow)" /><rect x="-208" y="-720" width="34" height="720" fill="#C29B6E" stroke="#96703F" stroke-width="1.6" /><rect x="174" y="-720" width="34" height="720" fill="#C29B6E" stroke="#96703F" stroke-width="1.6" /><rect x="-242" y="-720" width="484" height="74" fill="#D9B78D" stroke="#96703F" stroke-width="1.6" /><rect x="-236" y="-498" width="472" height="40" fill="#A87F53" stroke="#96703F" stroke-width="1.6" /><rect x="-286" y="-640" width="114" height="26" fill="#E7CCA6" stroke="#96703F" stroke-width="1.6" /><rect x="172" y="-640" width="114" height="26" fill="#E7CCA6" stroke="#96703F" stroke-width="1.6" /><rect x="-286" y="-640" width="34" height="640" fill="#D9B78D" stroke="#96703F" stroke-width="1.6" /><rect x="252" y="-640" width="34" height="640" fill="#D9B78D" stroke="#96703F" stroke-width="1.6" /><rect x="-252" y="-444" width="504" height="22" fill="#C29B6E" stroke="#96703F" stroke-width="1.6" /><rect x="-240" y="-422" width="480" height="20" fill="#E7CCA6" stroke="#96703F" stroke-width="1.6" /><rect x="-252" y="-186" width="504" height="22" fill="#C29B6E" stroke="#96703F" stroke-width="1.6" /><rect x="-236" y="-236" width="472" height="18" fill="#A87F53" stroke="#96703F" stroke-width="1.6" /></g></svg>